<?xml version="1.0" standalone="no"?><svg xmlns="http://www.w3.org/2000/svg" viewBox="0 0 1440 320"><path fill="#f3f4f5" fill-opacity="1" d="M0,256L40,245.3C80,235,160,213,240,218.7C320,224,400,256,480,272C560,288,640,288,720,266.7C800,245,880,203,960,208C1040,213,1120,267,1200,277.3C1280,288,1360,256,1400,240L1440,224L1440,320L1400,320C1360,320,1280,320,1200,320C1120,320,1040,320,960,320C880,320,800,320,720,320C640,320,560,320,480,320C400,320,320,320,240,320C160,320,80,320,40,320L0,320Z"></path></svg>