<?xml version="1.0" standalone="no"?><svg xmlns="http://www.w3.org/2000/svg" viewBox="0 0 1440 320"><path fill="#f3f4f5" fill-opacity="1" d="M0,96L24,85.3C48,75,96,53,144,53.3C192,53,240,75,288,80C336,85,384,75,432,96C480,117,528,171,576,170.7C624,171,672,117,720,117.3C768,117,816,171,864,192C912,213,960,203,1008,170.7C1056,139,1104,85,1152,80C1200,75,1248,117,1296,133.3C1344,149,1392,139,1416,133.3L1440,128L1440,0L1416,0C1392,0,1344,0,1296,0C1248,0,1200,0,1152,0C1104,0,1056,0,1008,0C960,0,912,0,864,0C816,0,768,0,720,0C672,0,624,0,576,0C528,0,480,0,432,0C384,0,336,0,288,0C240,0,192,0,144,0C96,0,48,0,24,0L0,0Z"></path></svg>